<?xml version="1.0" standalone="no"?>
<!DOCTYPE svg PUBLIC "-//W3C//DTD SVG 20010904//EN"
 "http://www.w3.org/TR/2001/REC-SVG-20010904/DTD/svg10.dtd">
<svg version="1.0" xmlns="http://www.w3.org/2000/svg"
 width="1252.000000pt" height="1280.000000pt" viewBox="0 0 1252.000000 1280.000000"
 preserveAspectRatio="xMidYMid meet">
<metadata>
Created by potrace 1.15, written by Peter Selinger 2001-2017
</metadata>
<g transform="translate(0.000000,1280.000000) scale(0.100000,-0.100000)"
fill="#000000" stroke="none">
<path d="M11270 12785 c-25 -9 -71 -20 -103 -26 -32 -5 -84 -23 -114 -39 -31
-17 -66 -30 -78 -30 -12 0 -38 -11 -58 -24 -19 -13 -43 -27 -54 -30 -42 -13
-111 -100 -136 -171 -39 -111 -60 -219 -55 -293 l3 -68 -58 -34 c-32 -19 -109
-80 -172 -136 -63 -57 -170 -149 -237 -205 -164 -138 -260 -223 -538 -484
-129 -121 -270 -251 -314 -289 -43 -38 -96 -95 -119 -125 -71 -97 -206 -236
-395 -409 -177 -161 -295 -284 -528 -552 -126 -145 -316 -344 -523 -550 -103
-102 -158 -165 -185 -212 -21 -37 -58 -85 -81 -107 -138 -127 -303 -314 -380
-431 -83 -125 -337 -423 -381 -447 -25 -14 -36 -7 -137 85 -55 50 -176 110
-290 143 -72 21 -81 22 -120 9 -56 -20 -80 -68 -85 -170 l-4 -75 103 -109 c57
-59 145 -140 196 -178 51 -38 95 -74 99 -79 3 -6 -23 -36 -58 -67 -132 -118
-275 -262 -396 -402 -69 -80 -173 -197 -231 -260 -186 -202 -1844 -1864 -2003
-2007 -227 -205 -526 -506 -599 -605 -35 -48 -93 -140 -129 -205 -35 -64 -91
-158 -124 -208 -75 -115 -199 -316 -289 -470 -205 -353 -616 -895 -1847 -2440
-578 -725 -778 -978 -821 -1041 l-32 -47 154 6 c522 21 1046 163 1544 417 171
87 477 265 610 354 115 76 442 309 519 370 173 134 599 562 1700 1705 114 119
289 298 388 399 99 101 197 205 218 230 20 26 84 94 141 152 121 122 425 473
553 640 92 119 148 185 301 355 49 55 164 186 255 290 90 105 226 253 300 330
74 77 152 165 173 195 20 30 91 106 157 168 65 62 127 125 136 141 9 15 29 32
45 38 36 14 47 42 65 168 8 55 17 107 19 116 6 18 104 119 397 407 144 141
202 192 220 192 31 0 103 -48 206 -137 87 -76 169 -123 211 -123 39 0 86 33
106 76 46 96 4 210 -125 347 l-79 83 35 28 c19 15 46 44 59 64 40 60 222 214
361 305 71 46 141 97 156 113 14 16 56 90 91 164 79 163 144 242 239 289 34
17 72 31 86 31 39 0 192 55 265 96 81 46 157 117 157 148 0 12 15 47 34 77 18
30 81 133 140 229 72 119 122 190 156 220 27 26 108 77 181 115 162 86 196
115 244 207 47 91 207 357 252 420 19 26 45 75 59 110 20 54 39 77 122 158
108 104 145 154 247 335 37 66 80 138 95 160 15 22 31 55 35 73 4 18 55 106
114 195 158 239 231 359 295 484 37 73 71 124 97 147 35 33 45 36 97 36 95 0
237 -27 323 -60 93 -35 132 -34 172 8 27 29 123 283 133 354 3 24 20 92 36
151 20 73 28 121 25 144 -14 84 -211 349 -401 539 -161 160 -529 459 -621 505
-75 36 -161 45 -225 24z m-4834 -6086 c19 -11 34 -25 34 -29 0 -5 37 -41 83
-80 180 -157 348 -311 474 -437 l132 -132 -49 -58 c-27 -32 -71 -83 -97 -114
-26 -31 -120 -133 -208 -226 -262 -276 -609 -669 -1210 -1368 -295 -343 -448
-513 -725 -810 -531 -569 -1051 -1109 -1464 -1520 -249 -247 -499 -502 -557
-565 -76 -82 -141 -141 -229 -205 -68 -49 -162 -123 -209 -164 -261 -224 -888
-560 -1371 -734 -241 -87 -462 -143 -687 -172 -144 -19 -183 -19 -183 -1 0 23
73 125 181 251 56 66 156 192 222 279 173 230 333 417 377 442 l39 22 -17 -34
c-12 -27 -13 -37 -4 -46 10 -10 21 -8 50 7 73 39 395 378 692 730 46 55 125
145 174 200 122 136 399 470 583 700 134 167 155 190 181 191 38 1 39 2 303
250 576 540 893 869 1349 1399 330 384 504 583 1010 1155 211 239 422 482 468
540 46 58 107 134 136 169 71 88 330 327 385 356 57 30 94 31 137 4z"/>
</g>
</svg>
